# xmcd
# Copyright (C) 1995-1998 Ti Kan
#
# Track frame offsets:
#       150
#       7356
#       18618
#       34216
#       46364
#       58354
#       64894
#       83049
#       94574
#       107129
#       124037
#       140932
#       159396
#       170221
#       192521
#       203558
#
# Disc length: 2879 seconds
#
# Revision: 2
# Processed by: cddbd v1.4PL0 Copyright (c) Steve Scherf et al.
# Submitted via: CD-Transfer v1.0
#
DISCID=ef0b3d10
DTITLE=Stefan Heimoz - 15 Lieder Und E Liebeserklärig
DYEAR=2003
DGENRE=
TTITLE0=Ds Pülverli
TTITLE1=Musig Wo's Bringt
TTITLE2=Itz Bisch Da
TTITLE3=Wäge Dir
TTITLE4=Nüt Als Rock'n'roll
TTITLE5=Wöschbrättbuch
TTITLE6=Grossi Ching
TTITLE7=Dr Fritz Bout Sech E Frou
TTITLE8=Hugetobler
TTITLE9=Dr Me
TTITLE10=D'linde Im Kandertal
TTITLE11=Sitzigs-Blues
TTITLE12=Üsi Nachbare U Mir
TTITLE13=Eifach La Ga
TTITLE14=Verschideni Wälte
TTITLE15=Gitarre
EXTD=
EXTT0=
EXTT1=
EXTT2=
EXTT3=
EXTT4=
EXTT5=
EXTT6=
EXTT7=
EXTT8=
EXTT9=
EXTT10=
EXTT11=
EXTT12=
EXTT13=
EXTT14=
EXTT15=
PLAYORDER=
